<svg xmlns="http://www.w3.org/2000/svg" width="144" height="144" viewBox="0 0 144 144"><defs><style>.a{fill:#d3b894;}.b{fill:#ae997c;}.c{fill:#c5dcd6;}.d{fill:#fffeff;}.e{fill:#8bb9ad;}.f{fill:#220d01;}.g{fill:#3c271c;}.h{fill:#776860;}.i{fill:#a3c7be;}.j{fill:#73a095;}.k{fill:#9e938e;}.l{fill:#97c0b6;}</style></defs><title>Asset 2</title><rect class="a" width="144" height="144"/><path class="b" d="M144,76.7C121.847,54.55,98.376,31.082,98.331,31.039a3.97,3.97,0,0,0-1.751-1.193C91.162,28,84.135,27.065,75.691,27.065S60.219,28,54.8,29.846a4.007,4.007,0,0,0-2.669,4.365,16.5,16.5,0,0,0-4.6,3.344,11.041,11.041,0,0,0-3.012,8.618,23.562,23.562,0,0,0,3.286,10.308c1.458,2.767,2.834,5.38,2.834,9.776v4.294L48.208,72.11a8.789,8.789,0,0,0-3.923,5.64L33.022,66.342H21.172c7.648,7.35,7.308,15.924,9.841,23.123a13.96,13.96,0,0,0,3.753,5.742c.036.035,25.155,25.155,48.792,48.793H144Z"/><path class="c" d="M100.742,72.38h-2V66.257c0-4.89,1.558-7.849,3.065-10.709a21.626,21.626,0,0,0,3.061-9.513,9.113,9.113,0,0,0-2.479-7.113c-4.178-4.479-13.409-6.847-26.694-6.847S53.174,34.443,49,38.922a9.113,9.113,0,0,0-2.479,7.113,21.639,21.639,0,0,0,3.061,9.513c1.507,2.86,3.065,5.819,3.065,10.709V72.38h-2V66.257c0-4.4-1.376-7.009-2.834-9.776a23.562,23.562,0,0,1-3.286-10.308,11.041,11.041,0,0,1,3.012-8.618c4.567-4.9,14.3-7.484,28.16-7.484s23.592,2.587,28.159,7.484a11.041,11.041,0,0,1,3.012,8.618,23.562,23.562,0,0,1-3.286,10.308c-1.458,2.767-2.834,5.38-2.834,9.776Z"/><path class="c" d="M45.816,80.166V78.83c-3.007,0-5.059-.432-7.726-3.831a51.612,51.612,0,0,1-5.068-8.657H21.172c7.648,7.35,7.308,15.924,9.841,23.123,1.761,5,6.2,9.545,14.877,9.545l3.495-1.52Z"/><path class="d" d="M32.041,68.938S35.8,77.211,41.6,78.067h0A10.147,10.147,0,0,1,38.09,75a51.612,51.612,0,0,1-5.068-8.657H21.172a24.681,24.681,0,0,1,2.339,2.6Z"/><path class="e" d="M45.89,99.01l3.495-1.52-.732-3.552C38.339,93.766,32.684,89,29.672,84.657a46.593,46.593,0,0,0,1.341,4.808C32.774,94.47,37.21,99.01,45.89,99.01Z"/><path class="f" d="M78.7,55.178H72.684s1.5,1,0,3.842H78.7C77.194,56.181,78.7,55.178,78.7,55.178Z"/><path class="g" d="M78.205,56.028H73.177a3.1,3.1,0,0,1-3.105-3.1h0a3.1,3.1,0,0,1,3.105-3.1h5.028a3.1,3.1,0,0,1,3.1,3.1h0A3.1,3.1,0,0,1,78.205,56.028Z"/><path class="h" d="M71.033,54.051a3.1,3.1,0,0,1,3.1-3.1h5.028a3.084,3.084,0,0,1,1.8.582,3.094,3.094,0,0,0-2.759-1.71H73.177a3.1,3.1,0,0,0-1.8,5.627A3.065,3.065,0,0,1,71.033,54.051Z"/><path class="c" d="M91.336,61.051l-8.191-1.939a32.317,32.317,0,0,0-14.909,0l-8.191,1.939a6.967,6.967,0,0,0-5.2,6.876H96.532A6.967,6.967,0,0,0,91.336,61.051Z"/><path class="i" d="M49.385,97.49,45.816,80.166V78.83a9.284,9.284,0,0,1-4.221-.763,9.284,9.284,0,0,0-.133,1.134l-.968,18.9c0,.071.012.138.011.209a19.936,19.936,0,0,0,5.385.7Z"/><path class="j" d="M48.653,93.938a27.782,27.782,0,0,1-7.883-1.21l-.276,5.377c0,.071.012.138.011.209q.59.165,1.219.293l.037.007q.6.123,1.246.209c.111.015.228.022.34.035.341.04.684.078,1.041.1.487.031.986.05,1.5.05l3.495-1.52Z"/><line class="k" x1="41.462" y1="79.201" x2="40.494" y2="98.105"/><path class="c" d="M55.172,67.645,48.208,72.11A8.867,8.867,0,0,0,44.075,79.2l-.968,18.9a6.3,6.3,0,0,0,6.182,6.709h52.8a6.3,6.3,0,0,0,6.181-6.709l-.968-18.9a8.867,8.867,0,0,0-4.133-7.091L96.21,67.645Z"/><path class="l" d="M100.013,79.2a9.616,9.616,0,0,0-3.18-7.091l-5.114-4.262c-.027-3.265-1.675-6.084-3.992-6.8l-6.3-1.939a19.452,19.452,0,0,0-5.734-.872,6.971,6.971,0,0,1,3.3.872l3.632,1.939c1.336.713,2.286,3.532,2.3,6.8l2.948,4.262A13.487,13.487,0,0,1,89.71,79.2l.429,18.9c.083,3.647-1.168,6.709-2.741,6.709H96c2.728,0,4.9-3.062,4.755-6.709Z"/><path class="d" d="M63.654,61.051c-2.317.713-3.965,3.532-3.992,6.8L54.548,72.11A9.611,9.611,0,0,0,51.369,79.2l-.745,18.9c-.144,3.647,2.027,6.709,4.755,6.709h8.6c-1.572,0-2.823-3.062-2.741-6.709l.43-18.9A13.488,13.488,0,0,1,63.5,72.11l2.948-4.262c.015-3.265.965-6.084,2.3-6.8l3.632-1.939a6.975,6.975,0,0,1,3.306-.872,19.459,19.459,0,0,0-5.735.872Z"/><path class="j" d="M55.006,66.479a7.44,7.44,0,0,0-.157,1.448H96.532a7.364,7.364,0,0,0-.157-1.448Z"/><path class="g" d="M95.287,37.65a4.007,4.007,0,0,1-1.293-.215c-4.583-1.562-10.741-2.354-18.3-2.354s-13.721.792-18.3,2.354A4.008,4.008,0,1,1,54.8,29.847C60.219,28,67.246,27.065,75.691,27.065S91.162,28,96.58,29.847a4.009,4.009,0,0,1-1.293,7.8Z"/><path class="f" d="M95.287,34.978a4.007,4.007,0,0,1-1.293-.215c-4.583-1.562-10.741-2.354-18.3-2.354s-13.721.792-18.3,2.354a4,4,0,0,1-5.06-2.441,3.987,3.987,0,0,0,5.06,5.113c4.581-1.562,10.739-2.354,18.3-2.354s13.72.792,18.3,2.354a3.987,3.987,0,0,0,5.06-5.112A4.008,4.008,0,0,1,95.287,34.978Z"/><path class="h" d="M54.8,31.183C60.219,29.336,67.246,28.4,75.691,28.4s15.471.935,20.889,2.782a3.992,3.992,0,0,1,2.643,3.139,4,4,0,0,0-2.643-4.475C91.162,28,84.135,27.065,75.691,27.065S60.219,28,54.8,29.847a4,4,0,0,0-2.643,4.475A3.99,3.99,0,0,1,54.8,31.183Z"/></svg>