<svg xmlns="http://www.w3.org/2000/svg" width="144" height="144" viewBox="0 0 144 144"><defs><style>.a{fill:#8bb9ad;}.b{fill:#73a095;}.c{fill:#f5f4f4;}.d{fill:#d8d4d2;}.e{fill:#fbf9fc;}.f{fill:#ece9e8;}.g{fill:#916b4b;}.h{fill:#725339;}</style></defs><title>Asset 1</title><rect class="a" width="144" height="144"/><path class="b" d="M144,84.68,113.583,54.264a11.908,11.908,0,0,0-11.858-3.2c-.074-.084-2.766-2.776-2.851-2.85a2.369,2.369,0,0,0-1.794-.83H45.506a2.356,2.356,0,0,0-2.367,2.4C43.608,66.6,48.954,77.473,53.6,83.591H32.564a3.144,3.144,0,0,0-3.144,3.144h0a3.123,3.123,0,0,0,1.051,2.33C30.509,89.107,59.719,118.32,85.4,144H144Z"/><path class="c" d="M104.954,74.708A12.051,12.051,0,1,1,117,62.657,12.065,12.065,0,0,1,104.954,74.708Zm0-18.32a6.269,6.269,0,1,0,6.268,6.269A6.276,6.276,0,0,0,104.954,56.388Z"/><path class="d" d="M112.835,53.562A12.033,12.033,0,0,1,95.859,70.54a12.037,12.037,0,1,0,16.976-16.978Z"/><path class="e" d="M94.115,63.869a12.033,12.033,0,0,1,19.932-9.094A12.036,12.036,0,1,0,97.072,71.752,11.985,11.985,0,0,1,94.115,63.869Z"/><path class="e" d="M43.139,49.784c.6,21.507,9.18,33.326,14.06,37.858H85.387c4.88-4.532,13.46-16.351,14.06-37.858a2.356,2.356,0,0,0-2.367-2.4H45.506A2.356,2.356,0,0,0,43.139,49.784Z"/><path class="c" d="M55.477,47.384H49.51a2.2,2.2,0,0,0-2,2.4c.507,21.507,7.755,33.326,11.878,37.858h3.261c-2.994-4.532-8.256-16.351-8.624-37.858C54,48.465,54.667,47.384,55.477,47.384Z"/><path class="f" d="M97.08,47.384H86.562c.781,0,1.423,1.081,1.4,2.4-.355,21.507-5.435,33.326-8.325,37.858h5.749c4.88-4.532,13.46-16.351,14.06-37.858A2.356,2.356,0,0,0,97.08,47.384Z"/><path class="e" d="M97.08,47.384H94.656a2.356,2.356,0,0,1,2.367,2.4c-.6,21.507-9.18,33.326-14.061,37.858h2.425c4.88-4.532,13.46-16.351,14.06-37.858A2.356,2.356,0,0,0,97.08,47.384Z"/><path class="c" d="M89.7,96.616H52.885c-4.275,0-8.369-2.248-11.361-6.236l-1.105-1.473h61.748l-1.105,1.473C98.071,94.368,93.976,96.616,89.7,96.616Z"/><path class="d" d="M41.524,90.38a18.023,18.023,0,0,0,1.69,1.923H99.372a18.023,18.023,0,0,0,1.69-1.923l1.105-1.474H40.419Z"/><path class="c" d="M110.022,89.878H32.564a3.144,3.144,0,0,1-3.144-3.143h0a3.144,3.144,0,0,1,3.144-3.144h77.458a3.143,3.143,0,0,1,3.144,3.144h0A3.143,3.143,0,0,1,110.022,89.878Z"/><path class="e" d="M32.564,86.015h77.458a3.144,3.144,0,0,1,2.9,1.932,3.144,3.144,0,0,0-2.9-4.356H32.564a3.144,3.144,0,0,0-2.9,4.356A3.144,3.144,0,0,1,32.564,86.015Z"/><path class="g" d="M71.822,72.177c2-1.705,9.012-4.575,9.091-9.86a4.984,4.984,0,0,0-9.62-1.926,4.983,4.983,0,0,0-9.619,1.927c.079,5.284,7.089,8.154,9.091,9.859A.809.809,0,0,0,71.822,72.177Z"/><path class="h" d="M77,57.35a4.988,4.988,0,0,0-5.706,3.041h0V72.373a.815.815,0,0,0,.529-.2c2-1.705,9.012-4.575,9.091-9.86A5.008,5.008,0,0,0,77,57.35Z"/></svg>