<svg xmlns="http://www.w3.org/2000/svg" width="144" height="144" viewBox="0 0 144 144"><defs><style>.a{fill:#8bb9ad;}.b{fill:#73a095;}.c{fill:#fbf9fc;}.d{fill:#e2dfdd;}.e{fill:#916b4b;}.f{fill:#bda693;}.g{fill:#725339;}.h{fill:#a7886f;}.i{fill:#d3c4b7;}.j{fill:#c8b5a5;}</style></defs><title>Asset 3</title><rect class="a" width="144" height="144"/><path class="b" d="M144,92.645,94.281,42.931,79.54,34.889h0c0-.5-3.376-.91-7.54-.91s-7.54.407-7.54.91h0L49.719,42.931h0l-.025.013-5,43.106c-5.5,1.191-8.834,2.744-8.834,4.444h0V93.81a1.962,1.962,0,0,0,.8,1.419c.033.037,25.021,25.028,48.763,48.771H144Z"/><path class="c" d="M72,97.283c-19.96,0-36.14-3.039-36.14-6.789V93.81c0,3.75,16.18,6.789,36.14,6.789s36.14-3.039,36.14-6.789V90.494C108.14,94.244,91.96,97.283,72,97.283Z"/><ellipse class="d" cx="72" cy="90.494" rx="36.14" ry="6.789"/><path class="e" d="M44.156,90.684l5.538-47.74,14.768-8.056H79.538l14.768,8.056,5.538,47.74S97.228,94.264,72,94.264,44.156,90.684,44.156,90.684Z"/><path class="f" d="M52.865,93.24a118.755,118.755,0,0,0,12.94.943L67.06,42.866H56.254Z"/><path class="g" d="M99.844,90.684l-5.538-47.74-4.527-2.469-3.133,1.09L90.717,93.3C98.705,92.237,99.844,90.684,99.844,90.684Z"/><path class="h" d="M64.462,34.888,49.719,42.931S57.526,45.815,72,45.815c14.957,0,22.281-2.884,22.281-2.884L79.538,34.888Z"/><path class="i" d="M66.991,45.7l3.7-10.807H67.06L56.147,44.5A83.846,83.846,0,0,0,66.991,45.7Z"/><path class="e" d="M86.89,44.7a40.578,40.578,0,0,0,7.391-1.772L79.538,34.888H76.566Z"/><ellipse class="j" cx="72" cy="34.888" rx="7.54" ry="0.91"/></svg>