<svg xmlns="http://www.w3.org/2000/svg" width="144" height="144" viewBox="0 0 144 144"><defs><style>.a{fill:#3c271c;}.b{fill:#220d01;}.c{fill:#d1e3de;}.d{fill:#a3c7be;}.e{fill:#fbf9fc;}.f{fill:#aecec6;}.g{fill:#d7e6e2;}</style></defs><title>Asset 4</title><rect class="a" width="144" height="144"/><path class="b" d="M144,79.457l-26.8-26.8a11.21,11.21,0,0,0-6.544-3.449c-5.392-.832-10.558,1.294-14.293,4.223-.088-.1-5.889-5.893-5.986-5.986a4.616,4.616,0,0,0-1.667-1.2c-.059-.059-11.78-11.768-11.881-11.859a3.957,3.957,0,1,0-5.74,5.444c-4.956.625-9.039,2.945-10.915,6.054a4.589,4.589,0,0,0-4.146,4.558h0v1.584h.066A27.85,27.85,0,0,0,44.47,65.278C44.4,65.21,33.24,54.046,33.145,53.957a8.332,8.332,0,0,0-.8-.738,1.132,1.132,0,0,0-1.3-.059L25.7,56.471a1.146,1.146,0,0,0-.109,1.857c.093.08.745.747.837.83.008.008.01.018.018.026.094.08.176.176.267.26.008.007.01.018.018.025s.023.023.035.033c2.3,2.608,3.719,6.376,4.625,10.734.172.822.393,1.717.669,2.651h0q.189.642.416,1.306l.028.085q.225.652.486,1.321l.029.072c.357.9.767,1.814,1.236,2.721.015.029.029.058.045.088.223.428.462.854.713,1.276.035.059.069.117.1.175q.374.62.788,1.223l.118.167c.287.409.586.813.9,1.206.02.026.043.051.064.077q.471.579.99,1.13L98.25,144H144Z"/><path class="c" d="M45.428,64.85c-4.464,3.2-9.154-8.558-13.083-11.631a1.134,1.134,0,0,0-1.3-.059L25.7,56.471a1.146,1.146,0,0,0-.109,1.857c3.007,2.574,4.748,6.848,5.8,11.908,1.465,7.041,6.483,19.194,20.09,19.194Z"/><path class="d" d="M45.428,64.85a2.967,2.967,0,0,1-.757.4l4.588,18.619c-9.013,0-14.256-5.332-17.2-10.979,2.088,7.065,7.4,16.543,19.421,16.543Z"/><path class="e" d="M25.867,58.6l5.182-3.209a1.134,1.134,0,0,1,1.3.058c3.929,3.073,8.619,14.834,13.083,11.632l5.5,22.339c.185,0,.365.015.552.015L45.428,64.85c-4.464,3.2-9.154-8.558-13.083-11.631a1.134,1.134,0,0,0-1.3-.059L25.7,56.471a1.146,1.146,0,0,0-.109,1.857C25.69,58.41,25.774,58.509,25.867,58.6Z"/><path class="c" d="M93.447,91.379l0-.07h-.022a3.523,3.523,0,0,1-.979-.086l-1.7-.684.345-1.8a2.267,2.267,0,0,1,2.349-1.81v0a26.444,26.444,0,0,0,20.024-11.907c3.428-5.291,4.309-12.017,2.191-16.739a7.488,7.488,0,0,0-5.669-4.675C103,52.537,96.963,58.045,95.428,61.092l-3.975-2c2.518-4.991,10.584-11.209,19.2-9.878a11.8,11.8,0,0,1,9.054,7.253c2.753,6.138,1.766,14.374-2.516,20.982A30.061,30.061,0,0,1,93.447,91.309Z"/><ellipse class="c" cx="73.771" cy="74.207" rx="31.051" ry="26.978"/><path class="f" d="M73.771,47.229c10.378,0,18.791,12.079,18.791,26.978s-8.413,26.978-18.791,26.978a26.978,26.978,0,0,0,0-53.956Z"/><path class="e" d="M56.8,74.207c0-14.9,7.6-26.978,16.969-26.978-13.751,0-24.9,12.079-24.9,26.978s11.148,26.978,24.9,26.978C64.4,101.185,56.8,89.106,56.8,74.207Z"/><ellipse class="c" cx="73.771" cy="49.725" rx="14.708" ry="10.065"/><path class="d" d="M73.771,39.66c4.916,0,8.9,4.507,8.9,10.066s-3.985,10.064-8.9,10.064c7.044,0,12.754-4.506,12.754-10.064S80.815,39.66,73.771,39.66Z"/><path class="e" d="M65.733,49.726c0-5.559,3.6-10.066,8.038-10.066-6.514,0-11.794,4.507-11.794,10.066S67.257,59.79,73.771,59.79C69.332,59.79,65.733,55.284,65.733,49.726Z"/><path class="d" d="M91.453,59.087l3.975,2a15.931,15.931,0,0,1,6.85-6.175,29.986,29.986,0,0,0-3.724-3A19.252,19.252,0,0,0,91.453,59.087Z"/><path class="d" d="M109.394,79.882a26.7,26.7,0,0,1-15.96,7.048v0a2.267,2.267,0,0,0-2.349,1.81l-.345,1.8,1.7.684a3.523,3.523,0,0,0,.979.086h.022l0,.07v-.07a28.5,28.5,0,0,0,11.522-2.992A25.34,25.34,0,0,0,109.394,79.882Z"/><path class="d" d="M45.428,64.85a2.624,2.624,0,0,1-2.6.349,24.06,24.06,0,0,0-3.446,12.347A23.757,23.757,0,0,0,41.1,86.405,18.109,18.109,0,0,0,51.484,89.43Z"/><ellipse class="g" cx="73.771" cy="74.207" rx="31.051" ry="26.978"/><path class="d" d="M73.771,49.726c10.378,0,18.791,10.96,18.791,24.481S84.149,98.689,73.771,98.689c14.87,0,26.925-10.961,26.925-24.482S88.641,49.726,73.771,49.726Z"/><path class="e" d="M56.8,74.207c0-13.521,7.6-24.481,16.969-24.481a24.485,24.485,0,1,0,0,48.963C64.4,98.689,56.8,87.728,56.8,74.207Z"/><path class="c" d="M60.632,45.844H86.91a4.6,4.6,0,0,1,4.6,4.6v1.584a0,0,0,0,1,0,0H56.028a0,0,0,0,1,0,0V50.448A4.6,4.6,0,0,1,60.632,45.844Z"/><path class="e" d="M86.91,45.844H60.632a4.6,4.6,0,0,0-4.6,4.6v1.584h.065a4.591,4.591,0,0,1,4.539-3.963H86.91a4.591,4.591,0,0,1,4.539,3.963h.065V50.448A4.6,4.6,0,0,0,86.91,45.844Z"/><path class="c" d="M63.4,98.376H84.142a3.634,3.634,0,0,1,3.634,3.634v1.643a0,0,0,0,1,0,0H59.766a0,0,0,0,1,0,0V102.01A3.634,3.634,0,0,1,63.4,98.376Z" transform="translate(147.542 202.028) rotate(180)"/><path class="d" d="M59.766,98.376v1.642a3.611,3.611,0,0,0,.058.583H87.718a3.611,3.611,0,0,0,.058-.583V98.376Z"/><path class="c" d="M77.862,37.039A3.965,3.965,0,1,1,73.9,33.075,3.965,3.965,0,0,1,77.862,37.039Z"/><path class="e" d="M73.9,35.3a3.952,3.952,0,0,1,3.787,2.851,3.965,3.965,0,1,0-7.573,0A3.951,3.951,0,0,1,73.9,35.3Z"/></svg>